<?xml version="1.0" encoding="utf-8"?>
<!-- Generator: Adobe Illustrator 26.0.1, SVG Export Plug-In . SVG Version: 6.00 Build 0)  -->
<svg version="1.1" xmlns="http://www.w3.org/2000/svg" xmlns:xlink="http://www.w3.org/1999/xlink" x="0px" y="0px"
	 viewBox="0 0 1592.62 841.89" style="enable-background:new 0 0 1592.62 841.89;" xml:space="preserve">
<style type="text/css">
	.st0{fill:#376A96;}
	.st1{fill:#162149;}
	.st2{display:none;fill:#162149;}
	.st3{display:none;}
	.st4{display:inline;fill:#162149;}
	.st5{display:inline;fill:#376A96;}
	.st6{display:inline;}
	.st7{font-family:'Poppins-Light';}
	.st8{font-size:80px;}
	.st9{fill:#2B2B2B;}
	.st10{fill:#181818;}
	.st11{display:none;fill:#181818;}
	.st12{fill:#EAEAEA;}
	.st13{fill:#DCDBDB;}
	.st14{display:none;fill:#DCDBDB;}
</style>
<g id="Layer_1">
	<g>
		<g>
			<g>
				<g>
					<polygon class="st0" points="1246.92,44.14 1117.14,345.34 1134.48,384.47 1275.06,384.47 1421.69,44.14 					"/>
					<polygon class="st1" points="1028.98,540.82 1203.76,540.82 983.67,44.14 808.89,44.14 					"/>
				</g>
				<g>
					<polygon class="st1" points="608.74,540.82 783.52,540.82 563.43,44.14 388.65,44.14 					"/>
					<polygon class="st0" points="723.39,285.15 608.68,540.82 785.61,540.82 810.89,482.62 					"/>
					<polygon class="st1" points="834.59,540.82 1009.36,540.82 789.27,44.14 614.49,44.14 					"/>
					<polygon class="st1" points="343.88,540.82 169.1,540.82 389.19,44.14 563.97,44.14 					"/>
				</g>
			</g>
		</g>
		<path class="st1" d="M283.08,643.35h25.99v139.62h-24.81v-89.8l-40,89.8h-17.09l-40.2-89.82v89.82h-24.82V643.35h26.19l0.3,0.68
			l47.17,105.34L283.08,643.35z M428.16,696.79c4.55,8.24,6.85,17.84,6.85,28.51c0,4.15-0.27,7.93-0.8,11.24l-0.16,0.97h-82.9
			c0.83,7.78,3.93,14.15,9.2,18.94c5.55,5.05,12.47,7.61,20.57,7.61c11.74,0,19.81-4.77,24.65-14.58l0.31-0.64h26.61l-0.5,1.51
			c-3.35,10.2-9.51,18.67-18.28,25.17c-8.79,6.5-19.83,9.81-32.79,9.81c-10.56,0-20.15-2.41-28.53-7.17
			c-8.38-4.76-15.04-11.55-19.81-20.2c-4.74-8.62-7.14-18.75-7.14-30.1c0-11.34,2.33-21.47,6.95-30.09
			c4.62-8.65,11.23-15.42,19.62-20.11c8.37-4.69,18.09-7.07,28.91-7.07c10.41,0,19.84,2.31,28.03,6.86
			C417.14,682.04,423.6,688.54,428.16,696.79z M360.73,699c-5,4.47-8.14,10.54-9.32,18.05h57.76c-0.38-7.39-3.22-13.42-8.46-17.94
			c-5.55-4.79-12.55-7.23-20.78-7.23C372.39,691.88,366.11,694.21,360.73,699z M476.51,645.22H451.5v27.07h-12.84v20.68h12.84v59.12
			c0,10.96,2.86,19.03,8.49,23.98c5.6,4.91,13.69,7.4,24.08,7.4h18.92V762.4h-14.97c-4.28,0-7.31-0.79-8.99-2.36
			c-1.66-1.55-2.51-4.22-2.51-7.95v-59.12h26.48v-20.68h-26.48V645.22z M600.18,672.2h25.01v111.17h-25.01v-14.11
			c-3.66,4.14-8.33,7.7-13.93,10.62c-6.72,3.49-14.48,5.27-23.06,5.27c-9.53,0-18.37-2.48-26.29-7.39
			c-7.91-4.89-14.27-11.82-18.89-20.6c-4.61-8.73-6.94-18.79-6.94-29.87s2.33-21.05,6.95-29.59c4.62-8.58,11.01-15.34,19-20.1
			c7.97-4.76,16.91-7.18,26.56-7.18c8.7,0,16.43,1.74,22.97,5.18c5.42,2.85,9.99,6.33,13.63,10.37V672.2z M583.96,759.1
			c4.8-2.78,8.74-6.93,11.71-12.31c2.99-5.4,4.51-11.83,4.51-19.11c0-7.28-1.51-13.67-4.5-19c-2.98-5.32-6.92-9.43-11.72-12.21
			c-4.81-2.78-10.07-4.19-15.63-4.19c-5.57,0-10.83,1.38-15.63,4.09c-4.8,2.72-8.75,6.76-11.72,12.02c-2.98,5.27-4.5,11.62-4.5,18.9
			c0,7.28,1.51,13.74,4.51,19.21c2.98,5.46,6.95,9.66,11.82,12.5C562.62,764.76,574.45,764.6,583.96,759.1z M644.08,783.27h24.82
			V634.76h-24.82V783.27z M827.36,643.95l-40.09,111.93l-39.62-111.17l-0.27-0.76H720.8l52.63,139.62h27.67l52.43-139.62H827.36z
			 M972.77,672.4h-25.83l-31.01,80.87l-29.56-80.12l-0.28-0.75h-27.59l43.32,108.23l-21.94,52.52l-0.67,1.59h25.81l67.09-160.75
			L972.77,672.4z M1065.49,672.3h25.01v111.17h-25.01v-14.11c-3.66,4.14-8.33,7.7-13.93,10.62c-6.72,3.49-14.48,5.27-23.06,5.27
			c-9.53,0-18.37-2.48-26.29-7.39c-7.91-4.89-14.27-11.82-18.89-20.6c-4.61-8.73-6.94-18.79-6.94-29.87
			c0-11.09,2.33-21.05,6.95-29.59c4.62-8.58,11.01-15.34,19-20.1c7.97-4.76,16.91-7.18,26.56-7.18c8.7,0,16.43,1.74,22.97,5.18
			c5.42,2.85,9.99,6.33,13.63,10.37V672.3z M1049.27,759.2c4.8-2.78,8.74-6.93,11.71-12.31c2.99-5.4,4.51-11.83,4.51-19.11
			c0-7.28-1.51-13.67-4.5-19c-2.98-5.32-6.92-9.43-11.72-12.21c-4.81-2.78-10.07-4.19-15.63-4.19c-5.57,0-10.83,1.38-15.63,4.09
			c-4.8,2.72-8.75,6.76-11.72,12.02c-2.98,5.27-4.5,11.62-4.5,18.9c0,7.28,1.51,13.74,4.51,19.21c2.98,5.46,6.95,9.66,11.82,12.5
			C1027.94,764.86,1039.76,764.7,1049.27,759.2z M1219.98,698.01c4.55,8.57,6.85,18.52,6.85,29.59s-2.3,21.11-6.84,29.87
			c-4.55,8.78-10.91,15.71-18.89,20.61c-7.99,4.9-16.94,7.38-26.59,7.38c-8.46,0-16.08-1.74-22.65-5.16
			c-5.54-2.89-10.28-6.42-14.13-10.51v65.67h-24.82V672.5h24.82v13.97c3.66-4.05,8.33-7.57,13.94-10.49
			c6.72-3.49,14.41-5.27,22.85-5.27c9.65,0,18.58,2.42,26.57,7.18C1209.07,682.67,1215.43,689.43,1219.98,698.01z M1154.05,696.79
			c-4.87,2.78-8.84,6.89-11.82,12.21c-2.98,5.33-4.5,11.72-4.5,19c0,7.28,1.51,13.71,4.51,19.11c2.97,5.38,6.94,9.52,11.81,12.3
			c9.85,5.64,21.65,5.54,31.25-0.1c4.88-2.84,8.86-7.05,11.83-12.5c2.99-5.48,4.51-11.95,4.51-19.21s-1.51-13.61-4.5-18.9
			c-2.97-5.24-6.94-9.29-11.82-12.01c-4.87-2.72-10.16-4.1-15.74-4.1C1164.14,692.59,1158.92,694,1154.05,696.79z M1330.15,672.5
			h25.01v111.17h-25.01v-14.11c-3.66,4.14-8.33,7.7-13.93,10.62c-6.72,3.49-14.48,5.27-23.06,5.27c-9.53,0-18.37-2.48-26.29-7.39
			c-7.91-4.89-14.27-11.82-18.89-20.6c-4.61-8.73-6.94-18.79-6.94-29.87s2.33-21.05,6.95-29.59c4.62-8.58,11.01-15.34,19-20.1
			c7.97-4.76,16.91-7.18,26.56-7.18c8.7,0,16.43,1.74,22.97,5.18c5.42,2.85,9.99,6.33,13.63,10.37V672.5z M1313.94,759.41
			c4.8-2.78,8.74-6.93,11.71-12.31c2.99-5.4,4.51-11.83,4.51-19.11c0-7.28-1.51-13.67-4.5-19c-2.98-5.32-6.92-9.43-11.72-12.21
			c-4.81-2.78-10.07-4.19-15.63-4.19c-5.57,0-10.83,1.38-15.63,4.09c-4.8,2.72-8.75,6.76-11.72,12.02c-2.98,5.27-4.5,11.62-4.5,18.9
			c0,7.28,1.51,13.74,4.51,19.21c2.98,5.46,6.95,9.66,11.82,12.5C1292.6,765.07,1304.43,764.91,1313.94,759.41z M1432.81,670.73
			c-7.66,0-14.4,1.61-20.03,4.79h-0.01c-4.51,2.56-8.33,5.96-11.42,10.13V672.5h-24.82v111.17h24.82v-58.45
			c0-10.7,2.19-18.27,6.48-22.5c4.3-4.24,10.78-6.39,19.25-6.39h6.87v-25.62H1432.81z"/>
		<path class="st2" d="M316.51,645.82V784.2h-14.04V673.7l-49.33,110.5h-10.23l-49.33-110.1v110.1h-14.04V645.82h14.84l53.55,119.93
			l53.55-119.93H316.51z M437.15,734.86H346.3c0.4,8.29,2.41,15.38,6.02,21.26c3.61,5.89,8.35,10.33,14.24,13.34
			c5.88,3.01,12.3,4.51,19.25,4.51c9.09,0,16.75-2.21,22.96-6.62c6.22-4.41,10.33-10.36,12.33-17.85h14.84
			c-2.68,10.7-8.39,19.42-17.15,26.17c-8.76,6.75-19.75,10.13-32.99,10.13c-10.3,0-19.52-2.31-27.67-6.92
			c-8.16-4.61-14.54-11.16-19.15-19.65c-4.61-8.49-6.92-18.42-6.92-29.78c0-11.36,2.27-21.33,6.82-29.88
			c4.54-8.56,10.9-15.11,19.05-19.65c8.15-4.54,17.45-6.82,27.87-6.82c10.43,0,19.55,2.28,27.38,6.82
			c7.82,4.55,13.84,10.66,18.05,18.35c4.21,7.69,6.32,16.21,6.32,25.57C437.55,728.65,437.42,732.33,437.15,734.86z M418.4,702.58
			c-3.41-5.75-8.06-10.09-13.94-13.04c-5.89-2.94-12.3-4.41-19.25-4.41c-10.43,0-19.32,3.34-26.67,10.03
			c-7.35,6.69-11.43,16.11-12.23,28.28h77.01C423.44,715.28,421.81,708.32,418.4,702.58z M476.46,686.53v67.99
			c0,6.69,1.27,11.3,3.81,13.84c2.54,2.54,7.02,3.81,13.44,3.81h12.84v12.03H491.5c-9.9,0-17.25-2.31-22.06-6.92
			c-4.81-4.61-7.22-12.2-7.22-22.76v-67.99h-15.24V674.7h15.24v-27.47h14.24v27.47h30.08v11.83H476.46z M522.46,699.67
			c4.48-8.49,10.69-15.04,18.65-19.65c7.95-4.61,16.95-6.92,26.97-6.92c10.43,0,19.42,2.41,26.97,7.22
			c7.55,4.82,13,10.96,16.34,18.45V674.7h14.04v109.5H611.4v-24.27c-3.48,7.49-8.99,13.67-16.55,18.55
			c-7.55,4.88-16.55,7.32-26.97,7.32c-9.9,0-18.82-2.34-26.77-7.02c-7.96-4.68-14.17-11.3-18.65-19.85
			c-4.48-8.55-6.72-18.45-6.72-29.68C515.74,718.02,517.98,708.16,522.46,699.67z M605.98,706.18c-3.61-6.68-8.52-11.83-14.74-15.44
			c-6.22-3.61-13.07-5.42-20.56-5.42c-7.76,0-14.71,1.74-20.86,5.21c-6.15,3.48-11,8.52-14.54,15.14
			c-3.54,6.62-5.31,14.48-5.31,23.57c0,8.96,1.77,16.81,5.31,23.57c3.54,6.75,8.39,11.9,14.54,15.44c6.15,3.54,13.1,5.31,20.86,5.31
			c7.49,0,14.34-1.8,20.56-5.42c6.22-3.61,11.13-8.75,14.74-15.44c3.61-6.69,5.42-14.44,5.42-23.26
			C611.4,720.62,609.59,712.87,605.98,706.18z M659.25,635.79v148.4h-14.04v-148.4H659.25z M870.02,644.02L816.87,784.2h-16.04
			l-53.15-140.18h15.24l45.93,124.94l46.32-124.94H870.02z M974.02,674.7l-64.98,161.04H894.4l21.26-52.14L870.74,674.7h15.44
			l37.3,93.45l36.1-93.45H974.02z M983.35,699.67c4.48-8.49,10.7-15.04,18.65-19.65c7.95-4.61,16.95-6.92,26.97-6.92
			c10.43,0,19.42,2.41,26.98,7.22c7.55,4.82,13,10.96,16.34,18.45V674.7h14.04v109.5h-14.04v-24.27
			c-3.48,7.49-8.99,13.67-16.54,18.55c-7.55,4.88-16.55,7.32-26.98,7.32c-9.9,0-18.82-2.34-26.77-7.02
			c-7.96-4.68-14.17-11.3-18.65-19.85c-4.48-8.55-6.72-18.45-6.72-29.68C976.63,718.02,978.87,708.16,983.35,699.67z
			 M1066.87,706.18c-3.61-6.68-8.52-11.83-14.74-15.44c-6.22-3.61-13.07-5.42-20.56-5.42c-7.76,0-14.71,1.74-20.85,5.21
			c-6.15,3.48-11,8.52-14.54,15.14c-3.54,6.62-5.31,14.48-5.31,23.57c0,8.96,1.77,16.81,5.31,23.57c3.54,6.75,8.39,11.9,14.54,15.44
			c6.15,3.54,13.1,5.31,20.85,5.31c7.49,0,14.34-1.8,20.56-5.42c6.22-3.61,11.13-8.75,14.74-15.44c3.61-6.69,5.42-14.44,5.42-23.26
			C1072.29,720.62,1070.48,712.87,1066.87,706.18z M1138.77,680.41c7.55-4.88,16.55-7.32,26.98-7.32c9.89,0,18.82,2.31,26.77,6.92
			c7.95,4.61,14.17,11.16,18.65,19.65c4.48,8.49,6.72,18.35,6.72,29.58c0,11.23-2.24,21.13-6.72,29.68
			c-4.48,8.56-10.7,15.18-18.65,19.85c-7.96,4.68-16.88,7.02-26.77,7.02c-10.3,0-19.25-2.44-26.87-7.32
			c-7.62-4.88-13.17-10.99-16.64-18.35v75.8h-13.84V674.7h13.84v24.06C1125.7,691.41,1131.21,685.3,1138.77,680.41z M1198.33,705.68
			c-3.54-6.62-8.39-11.66-14.54-15.14c-6.15-3.47-13.1-5.21-20.86-5.21c-7.49,0-14.34,1.81-20.56,5.42
			c-6.22,3.61-11.13,8.76-14.74,15.44c-3.61,6.69-5.42,14.44-5.42,23.26c0,8.82,1.8,16.58,5.42,23.26
			c3.61,6.69,8.52,11.83,14.74,15.44c6.22,3.61,13.07,5.42,20.56,5.42c7.75,0,14.71-1.77,20.86-5.31
			c6.15-3.54,10.99-8.69,14.54-15.44c3.54-6.75,5.31-14.61,5.31-23.57C1203.65,720.16,1201.87,712.3,1198.33,705.68z
			 M1236.61,699.67c4.48-8.49,10.7-15.04,18.65-19.65c7.95-4.61,16.95-6.92,26.97-6.92c10.43,0,19.42,2.41,26.98,7.22
			c7.55,4.82,13,10.96,16.34,18.45V674.7h14.04v109.5h-14.04v-24.27c-3.48,7.49-8.99,13.67-16.54,18.55
			c-7.55,4.88-16.55,7.32-26.98,7.32c-9.9,0-18.82-2.34-26.77-7.02c-7.96-4.68-14.17-11.3-18.65-19.85
			c-4.48-8.55-6.72-18.45-6.72-29.68C1229.89,718.02,1232.13,708.16,1236.61,699.67z M1320.13,706.18
			c-3.61-6.68-8.52-11.83-14.74-15.44c-6.22-3.61-13.07-5.42-20.56-5.42c-7.76,0-14.71,1.74-20.86,5.21
			c-6.15,3.48-11,8.52-14.54,15.14c-3.54,6.62-5.31,14.48-5.31,23.57c0,8.96,1.77,16.81,5.31,23.57s8.39,11.9,14.54,15.44
			c6.15,3.54,13.1,5.31,20.86,5.31c7.49,0,14.34-1.8,20.56-5.42c6.22-3.61,11.13-8.75,14.74-15.44c3.61-6.69,5.42-14.44,5.42-23.26
			C1325.55,720.62,1323.75,712.87,1320.13,706.18z M1389.82,678.31c6.35-3.74,14.14-5.62,23.36-5.62v14.64h-3.81
			c-10.16,0-18.32,2.74-24.47,8.22c-6.15,5.48-9.22,14.64-9.22,27.47v61.17h-14.04V674.7h14.04v19.45
			C1378.76,687.33,1383.47,682.05,1389.82,678.31z"/>
	</g>
	<g class="st3">
		<rect x="201.64" y="250.52" class="st4" width="117.45" height="117.45"/>
		<rect x="201.64" y="408.42" class="st5" width="117.45" height="117.45"/>
		<text transform="matrix(1 0 0 1 400.0447 336.6825)" class="st6 st7 st8">Hex - 162149</text>
		<text transform="matrix(1 0 0 1 406.4429 494.5855)" class="st6 st7 st8">Hex - 376a96</text>
	</g>
</g>
<g id="black" class="st3">
	<g class="st6">
		<g>
			<g>
				<g>
					<polygon class="st9" points="1246.92,44.14 1117.14,345.34 1134.48,384.47 1275.06,384.47 1421.69,44.14 					"/>
					<polygon class="st10" points="1028.98,540.82 1203.76,540.82 983.67,44.14 808.89,44.14 					"/>
				</g>
				<g>
					<polygon class="st10" points="608.74,540.82 783.52,540.82 563.43,44.14 388.65,44.14 					"/>
					<polygon class="st9" points="723.39,285.15 608.68,540.82 785.61,540.82 810.89,482.62 					"/>
					<polygon class="st10" points="834.59,540.82 1009.36,540.82 789.27,44.14 614.49,44.14 					"/>
					<polygon class="st10" points="343.88,540.82 169.1,540.82 389.19,44.14 563.97,44.14 					"/>
				</g>
			</g>
		</g>
		<path class="st10" d="M283.08,643.35h25.99v139.62h-24.81v-89.8l-40,89.8h-17.09l-40.2-89.82v89.82h-24.82V643.35h26.19l0.3,0.68
			l47.17,105.34L283.08,643.35z M428.16,696.79c4.55,8.24,6.85,17.84,6.85,28.51c0,4.15-0.27,7.93-0.8,11.24l-0.16,0.97h-82.9
			c0.83,7.78,3.93,14.15,9.2,18.94c5.55,5.05,12.47,7.61,20.57,7.61c11.74,0,19.81-4.77,24.65-14.58l0.31-0.64h26.61l-0.5,1.51
			c-3.35,10.2-9.51,18.67-18.28,25.17c-8.79,6.5-19.83,9.81-32.79,9.81c-10.56,0-20.15-2.41-28.53-7.17
			c-8.38-4.76-15.04-11.55-19.81-20.2c-4.74-8.62-7.14-18.75-7.14-30.1c0-11.34,2.33-21.47,6.95-30.09
			c4.62-8.65,11.23-15.42,19.62-20.11c8.37-4.69,18.09-7.07,28.91-7.07c10.41,0,19.84,2.31,28.03,6.86
			C417.14,682.04,423.6,688.54,428.16,696.79z M360.73,699c-5,4.47-8.14,10.54-9.32,18.05h57.76c-0.38-7.39-3.22-13.42-8.46-17.94
			c-5.55-4.79-12.55-7.23-20.78-7.23C372.39,691.88,366.11,694.21,360.73,699z M476.51,645.22H451.5v27.07h-12.84v20.68h12.84v59.12
			c0,10.96,2.86,19.03,8.49,23.98c5.6,4.91,13.69,7.4,24.08,7.4h18.92V762.4h-14.97c-4.28,0-7.31-0.79-8.99-2.36
			c-1.66-1.55-2.51-4.22-2.51-7.95v-59.12h26.48v-20.68h-26.48V645.22z M600.18,672.2h25.01v111.17h-25.01v-14.11
			c-3.66,4.14-8.33,7.7-13.93,10.62c-6.72,3.49-14.48,5.27-23.06,5.27c-9.53,0-18.37-2.48-26.29-7.39
			c-7.91-4.89-14.27-11.82-18.89-20.6c-4.61-8.73-6.94-18.79-6.94-29.87s2.33-21.05,6.95-29.59c4.62-8.58,11.01-15.34,19-20.1
			c7.97-4.76,16.91-7.18,26.56-7.18c8.7,0,16.43,1.74,22.97,5.18c5.42,2.85,9.99,6.33,13.63,10.37V672.2z M583.96,759.1
			c4.8-2.78,8.74-6.93,11.71-12.31c2.99-5.4,4.51-11.83,4.51-19.11c0-7.28-1.51-13.67-4.5-19c-2.98-5.32-6.92-9.43-11.72-12.21
			c-4.81-2.78-10.07-4.19-15.63-4.19c-5.57,0-10.83,1.38-15.63,4.09c-4.8,2.72-8.75,6.76-11.72,12.02c-2.98,5.27-4.5,11.62-4.5,18.9
			c0,7.28,1.51,13.74,4.51,19.21c2.98,5.46,6.95,9.66,11.82,12.5C562.62,764.76,574.45,764.6,583.96,759.1z M644.08,783.27h24.82
			V634.76h-24.82V783.27z M827.36,643.95l-40.09,111.93l-39.62-111.17l-0.27-0.76H720.8l52.63,139.62h27.67l52.43-139.62H827.36z
			 M972.77,672.4h-25.83l-31.01,80.87l-29.56-80.12l-0.28-0.75h-27.59l43.32,108.23l-21.94,52.52l-0.67,1.59h25.81l67.09-160.75
			L972.77,672.4z M1065.49,672.3h25.01v111.17h-25.01v-14.11c-3.66,4.14-8.33,7.7-13.93,10.62c-6.72,3.49-14.48,5.27-23.06,5.27
			c-9.53,0-18.37-2.48-26.29-7.39c-7.91-4.89-14.27-11.82-18.89-20.6c-4.61-8.73-6.94-18.79-6.94-29.87
			c0-11.09,2.33-21.05,6.95-29.59c4.62-8.58,11.01-15.34,19-20.1c7.97-4.76,16.91-7.18,26.56-7.18c8.7,0,16.43,1.74,22.97,5.18
			c5.42,2.85,9.99,6.33,13.63,10.37V672.3z M1049.27,759.2c4.8-2.78,8.74-6.93,11.71-12.31c2.99-5.4,4.51-11.83,4.51-19.11
			c0-7.28-1.51-13.67-4.5-19c-2.98-5.32-6.92-9.43-11.72-12.21c-4.81-2.78-10.07-4.19-15.63-4.19c-5.57,0-10.83,1.38-15.63,4.09
			c-4.8,2.72-8.75,6.76-11.72,12.02c-2.98,5.27-4.5,11.62-4.5,18.9c0,7.28,1.51,13.74,4.51,19.21c2.98,5.46,6.95,9.66,11.82,12.5
			C1027.94,764.86,1039.76,764.7,1049.27,759.2z M1219.98,698.01c4.55,8.57,6.85,18.52,6.85,29.59s-2.3,21.11-6.84,29.87
			c-4.55,8.78-10.91,15.71-18.89,20.61c-7.99,4.9-16.94,7.38-26.59,7.38c-8.46,0-16.08-1.74-22.65-5.16
			c-5.54-2.89-10.28-6.42-14.13-10.51v65.67h-24.82V672.5h24.82v13.97c3.66-4.05,8.33-7.57,13.94-10.49
			c6.72-3.49,14.41-5.27,22.85-5.27c9.65,0,18.58,2.42,26.57,7.18C1209.07,682.67,1215.43,689.43,1219.98,698.01z M1154.05,696.79
			c-4.87,2.78-8.84,6.89-11.82,12.21c-2.98,5.33-4.5,11.72-4.5,19c0,7.28,1.51,13.71,4.51,19.11c2.97,5.38,6.94,9.52,11.81,12.3
			c9.85,5.64,21.65,5.54,31.25-0.1c4.88-2.84,8.86-7.05,11.83-12.5c2.99-5.48,4.51-11.95,4.51-19.21s-1.51-13.61-4.5-18.9
			c-2.97-5.24-6.94-9.29-11.82-12.01c-4.87-2.72-10.16-4.1-15.74-4.1C1164.14,692.59,1158.92,694,1154.05,696.79z M1330.15,672.5
			h25.01v111.17h-25.01v-14.11c-3.66,4.14-8.33,7.7-13.93,10.62c-6.72,3.49-14.48,5.27-23.06,5.27c-9.53,0-18.37-2.48-26.29-7.39
			c-7.91-4.89-14.27-11.82-18.89-20.6c-4.61-8.73-6.94-18.79-6.94-29.87s2.33-21.05,6.95-29.59c4.62-8.58,11.01-15.34,19-20.1
			c7.97-4.76,16.91-7.18,26.56-7.18c8.7,0,16.43,1.74,22.97,5.18c5.42,2.85,9.99,6.33,13.63,10.37V672.5z M1313.94,759.41
			c4.8-2.78,8.74-6.93,11.71-12.31c2.99-5.4,4.51-11.83,4.51-19.11c0-7.28-1.51-13.67-4.5-19c-2.98-5.32-6.92-9.43-11.72-12.21
			c-4.81-2.78-10.07-4.19-15.63-4.19c-5.57,0-10.83,1.38-15.63,4.09c-4.8,2.72-8.75,6.76-11.72,12.02c-2.98,5.27-4.5,11.62-4.5,18.9
			c0,7.28,1.51,13.74,4.51,19.21c2.98,5.46,6.95,9.66,11.82,12.5C1292.6,765.07,1304.43,764.91,1313.94,759.41z M1432.81,670.73
			c-7.66,0-14.4,1.61-20.03,4.79h-0.01c-4.51,2.56-8.33,5.96-11.42,10.13V672.5h-24.82v111.17h24.82v-58.45
			c0-10.7,2.19-18.27,6.48-22.5c4.3-4.24,10.78-6.39,19.25-6.39h6.87v-25.62H1432.81z"/>
		<path class="st11" d="M316.51,645.82V784.2h-14.04V673.7l-49.33,110.5h-10.23l-49.33-110.1v110.1h-14.04V645.82h14.84
			l53.55,119.93l53.55-119.93H316.51z M437.15,734.86H346.3c0.4,8.29,2.41,15.38,6.02,21.26c3.61,5.89,8.35,10.33,14.24,13.34
			c5.88,3.01,12.3,4.51,19.25,4.51c9.09,0,16.75-2.21,22.96-6.62c6.22-4.41,10.33-10.36,12.33-17.85h14.84
			c-2.68,10.7-8.39,19.42-17.15,26.17c-8.76,6.75-19.75,10.13-32.99,10.13c-10.3,0-19.52-2.31-27.67-6.92
			c-8.16-4.61-14.54-11.16-19.15-19.65c-4.61-8.49-6.92-18.42-6.92-29.78c0-11.36,2.27-21.33,6.82-29.88
			c4.54-8.56,10.9-15.11,19.05-19.65c8.15-4.54,17.45-6.82,27.87-6.82c10.43,0,19.55,2.28,27.38,6.82
			c7.82,4.55,13.84,10.66,18.05,18.35c4.21,7.69,6.32,16.21,6.32,25.57C437.55,728.65,437.42,732.33,437.15,734.86z M418.4,702.58
			c-3.41-5.75-8.06-10.09-13.94-13.04c-5.89-2.94-12.3-4.41-19.25-4.41c-10.43,0-19.32,3.34-26.67,10.03
			c-7.35,6.69-11.43,16.11-12.23,28.28h77.01C423.44,715.28,421.81,708.32,418.4,702.58z M476.46,686.53v67.99
			c0,6.69,1.27,11.3,3.81,13.84c2.54,2.54,7.02,3.81,13.44,3.81h12.84v12.03H491.5c-9.9,0-17.25-2.31-22.06-6.92
			c-4.81-4.61-7.22-12.2-7.22-22.76v-67.99h-15.24V674.7h15.24v-27.47h14.24v27.47h30.08v11.83H476.46z M522.46,699.67
			c4.48-8.49,10.69-15.04,18.65-19.65c7.95-4.61,16.95-6.92,26.97-6.92c10.43,0,19.42,2.41,26.97,7.22
			c7.55,4.82,13,10.96,16.34,18.45V674.7h14.04v109.5H611.4v-24.27c-3.48,7.49-8.99,13.67-16.55,18.55
			c-7.55,4.88-16.55,7.32-26.97,7.32c-9.9,0-18.82-2.34-26.77-7.02c-7.96-4.68-14.17-11.3-18.65-19.85
			c-4.48-8.55-6.72-18.45-6.72-29.68C515.74,718.02,517.98,708.16,522.46,699.67z M605.98,706.18c-3.61-6.68-8.52-11.83-14.74-15.44
			c-6.22-3.61-13.07-5.42-20.56-5.42c-7.76,0-14.71,1.74-20.86,5.21c-6.15,3.48-11,8.52-14.54,15.14
			c-3.54,6.62-5.31,14.48-5.31,23.57c0,8.96,1.77,16.81,5.31,23.57c3.54,6.75,8.39,11.9,14.54,15.44c6.15,3.54,13.1,5.31,20.86,5.31
			c7.49,0,14.34-1.8,20.56-5.42c6.22-3.61,11.13-8.75,14.74-15.44c3.61-6.69,5.42-14.44,5.42-23.26
			C611.4,720.62,609.59,712.87,605.98,706.18z M659.25,635.79v148.4h-14.04v-148.4H659.25z M870.02,644.02L816.87,784.2h-16.04
			l-53.15-140.18h15.24l45.93,124.94l46.32-124.94H870.02z M974.02,674.7l-64.98,161.04H894.4l21.26-52.14L870.74,674.7h15.44
			l37.3,93.45l36.1-93.45H974.02z M983.35,699.67c4.48-8.49,10.7-15.04,18.65-19.65c7.95-4.61,16.95-6.92,26.97-6.92
			c10.43,0,19.42,2.41,26.98,7.22c7.55,4.82,13,10.96,16.34,18.45V674.7h14.04v109.5h-14.04v-24.27
			c-3.48,7.49-8.99,13.67-16.54,18.55c-7.55,4.88-16.55,7.32-26.98,7.32c-9.9,0-18.82-2.34-26.77-7.02
			c-7.96-4.68-14.17-11.3-18.65-19.85c-4.48-8.55-6.72-18.45-6.72-29.68C976.63,718.02,978.87,708.16,983.35,699.67z
			 M1066.87,706.18c-3.61-6.68-8.52-11.83-14.74-15.44c-6.22-3.61-13.07-5.42-20.56-5.42c-7.76,0-14.71,1.74-20.85,5.21
			c-6.15,3.48-11,8.52-14.54,15.14c-3.54,6.62-5.31,14.48-5.31,23.57c0,8.96,1.77,16.81,5.31,23.57c3.54,6.75,8.39,11.9,14.54,15.44
			c6.15,3.54,13.1,5.31,20.85,5.31c7.49,0,14.34-1.8,20.56-5.42c6.22-3.61,11.13-8.75,14.74-15.44c3.61-6.69,5.42-14.44,5.42-23.26
			C1072.29,720.62,1070.48,712.87,1066.87,706.18z M1138.77,680.41c7.55-4.88,16.55-7.32,26.98-7.32c9.89,0,18.82,2.31,26.77,6.92
			c7.95,4.61,14.17,11.16,18.65,19.65c4.48,8.49,6.72,18.35,6.72,29.58c0,11.23-2.24,21.13-6.72,29.68
			c-4.48,8.56-10.7,15.18-18.65,19.85c-7.96,4.68-16.88,7.02-26.77,7.02c-10.3,0-19.25-2.44-26.87-7.32
			c-7.62-4.88-13.17-10.99-16.64-18.35v75.8h-13.84V674.7h13.84v24.06C1125.7,691.41,1131.21,685.3,1138.77,680.41z M1198.33,705.68
			c-3.54-6.62-8.39-11.66-14.54-15.14c-6.15-3.47-13.1-5.21-20.86-5.21c-7.49,0-14.34,1.81-20.56,5.42
			c-6.22,3.61-11.13,8.76-14.74,15.44c-3.61,6.69-5.42,14.44-5.42,23.26c0,8.82,1.8,16.58,5.42,23.26
			c3.61,6.69,8.52,11.83,14.74,15.44c6.22,3.61,13.07,5.42,20.56,5.42c7.75,0,14.71-1.77,20.86-5.31
			c6.15-3.54,10.99-8.69,14.54-15.44c3.54-6.75,5.31-14.61,5.31-23.57C1203.65,720.16,1201.87,712.3,1198.33,705.68z
			 M1236.61,699.67c4.48-8.49,10.7-15.04,18.65-19.65c7.95-4.61,16.95-6.92,26.97-6.92c10.43,0,19.42,2.41,26.98,7.22
			c7.55,4.82,13,10.96,16.34,18.45V674.7h14.04v109.5h-14.04v-24.27c-3.48,7.49-8.99,13.67-16.54,18.55
			c-7.55,4.88-16.55,7.32-26.98,7.32c-9.9,0-18.82-2.34-26.77-7.02c-7.96-4.68-14.17-11.3-18.65-19.85
			c-4.48-8.55-6.72-18.45-6.72-29.68C1229.89,718.02,1232.13,708.16,1236.61,699.67z M1320.13,706.18
			c-3.61-6.68-8.52-11.83-14.74-15.44c-6.22-3.61-13.07-5.42-20.56-5.42c-7.76,0-14.71,1.74-20.86,5.21
			c-6.15,3.48-11,8.52-14.54,15.14c-3.54,6.62-5.31,14.48-5.31,23.57c0,8.96,1.77,16.81,5.31,23.57s8.39,11.9,14.54,15.44
			c6.15,3.54,13.1,5.31,20.86,5.31c7.49,0,14.34-1.8,20.56-5.42c6.22-3.61,11.13-8.75,14.74-15.44c3.61-6.69,5.42-14.44,5.42-23.26
			C1325.55,720.62,1323.75,712.87,1320.13,706.18z M1389.82,678.31c6.35-3.74,14.14-5.62,23.36-5.62v14.64h-3.81
			c-10.16,0-18.32,2.74-24.47,8.22c-6.15,5.48-9.22,14.64-9.22,27.47v61.17h-14.04V674.7h14.04v19.45
			C1378.76,687.33,1383.47,682.05,1389.82,678.31z"/>
	</g>
</g>
<g id="white" class="st3">
	<g class="st6">
		<g>
			<g>
				<g>
					<polygon class="st12" points="1246.92,44.14 1117.14,345.34 1134.48,384.47 1275.06,384.47 1421.69,44.14 					"/>
					<polygon class="st13" points="1028.98,540.82 1203.76,540.82 983.67,44.14 808.89,44.14 					"/>
				</g>
				<g>
					<polygon class="st13" points="608.74,540.82 783.52,540.82 563.43,44.14 388.65,44.14 					"/>
					<polygon class="st12" points="723.39,285.15 608.68,540.82 785.61,540.82 810.89,482.62 					"/>
					<polygon class="st13" points="834.59,540.82 1009.36,540.82 789.27,44.14 614.49,44.14 					"/>
					<polygon class="st13" points="343.88,540.82 169.1,540.82 389.19,44.14 563.97,44.14 					"/>
				</g>
			</g>
		</g>
		<path class="st14" d="M283.08,643.35h25.99v139.62h-24.81v-89.8l-40,89.8h-17.09l-40.2-89.82v89.82h-24.82V643.35h26.19l0.3,0.68
			l47.17,105.34L283.08,643.35z M428.16,696.79c4.55,8.24,6.85,17.84,6.85,28.51c0,4.15-0.27,7.93-0.8,11.24l-0.16,0.97h-82.9
			c0.83,7.78,3.93,14.15,9.2,18.94c5.55,5.05,12.47,7.61,20.57,7.61c11.74,0,19.81-4.77,24.65-14.58l0.31-0.64h26.61l-0.5,1.51
			c-3.35,10.2-9.51,18.67-18.28,25.17c-8.79,6.5-19.83,9.81-32.79,9.81c-10.56,0-20.15-2.41-28.53-7.17
			c-8.38-4.76-15.04-11.55-19.81-20.2c-4.74-8.62-7.14-18.75-7.14-30.1c0-11.34,2.33-21.47,6.95-30.09
			c4.62-8.65,11.23-15.42,19.62-20.11c8.37-4.69,18.09-7.07,28.91-7.07c10.41,0,19.84,2.31,28.03,6.86
			C417.14,682.04,423.6,688.54,428.16,696.79z M360.73,699c-5,4.47-8.14,10.54-9.32,18.05h57.76c-0.38-7.39-3.22-13.42-8.46-17.94
			c-5.55-4.79-12.55-7.23-20.78-7.23C372.39,691.88,366.11,694.21,360.73,699z M476.51,645.22H451.5v27.07h-12.84v20.68h12.84v59.12
			c0,10.96,2.86,19.03,8.49,23.98c5.6,4.91,13.69,7.4,24.08,7.4h18.92V762.4h-14.97c-4.28,0-7.31-0.79-8.99-2.36
			c-1.66-1.55-2.51-4.22-2.51-7.95v-59.12h26.48v-20.68h-26.48V645.22z M600.18,672.2h25.01v111.17h-25.01v-14.11
			c-3.66,4.14-8.33,7.7-13.93,10.62c-6.72,3.49-14.48,5.27-23.06,5.27c-9.53,0-18.37-2.48-26.29-7.39
			c-7.91-4.89-14.27-11.82-18.89-20.6c-4.61-8.73-6.94-18.79-6.94-29.87s2.33-21.05,6.95-29.59c4.62-8.58,11.01-15.34,19-20.1
			c7.97-4.76,16.91-7.18,26.56-7.18c8.7,0,16.43,1.74,22.97,5.18c5.42,2.85,9.99,6.33,13.63,10.37V672.2z M583.96,759.1
			c4.8-2.78,8.74-6.93,11.71-12.31c2.99-5.4,4.51-11.83,4.51-19.11c0-7.28-1.51-13.67-4.5-19c-2.98-5.32-6.92-9.43-11.72-12.21
			c-4.81-2.78-10.07-4.19-15.63-4.19c-5.57,0-10.83,1.38-15.63,4.09c-4.8,2.72-8.75,6.76-11.72,12.02c-2.98,5.27-4.5,11.62-4.5,18.9
			c0,7.28,1.51,13.74,4.51,19.21c2.98,5.46,6.95,9.66,11.82,12.5C562.62,764.76,574.45,764.6,583.96,759.1z M644.08,783.27h24.82
			V634.76h-24.82V783.27z M827.36,643.95l-40.09,111.93l-39.62-111.17l-0.27-0.76H720.8l52.63,139.62h27.67l52.43-139.62H827.36z
			 M972.77,672.4h-25.83l-31.01,80.87l-29.56-80.12l-0.28-0.75h-27.59l43.32,108.23l-21.94,52.52l-0.67,1.59h25.81l67.09-160.75
			L972.77,672.4z M1065.49,672.3h25.01v111.17h-25.01v-14.11c-3.66,4.14-8.33,7.7-13.93,10.62c-6.72,3.49-14.48,5.27-23.06,5.27
			c-9.53,0-18.37-2.48-26.29-7.39c-7.91-4.89-14.27-11.82-18.89-20.6c-4.61-8.73-6.94-18.79-6.94-29.87
			c0-11.09,2.33-21.05,6.95-29.59c4.62-8.58,11.01-15.34,19-20.1c7.97-4.76,16.91-7.18,26.56-7.18c8.7,0,16.43,1.74,22.97,5.18
			c5.42,2.85,9.99,6.33,13.63,10.37V672.3z M1049.27,759.2c4.8-2.78,8.74-6.93,11.71-12.31c2.99-5.4,4.51-11.83,4.51-19.11
			c0-7.28-1.51-13.67-4.5-19c-2.98-5.32-6.92-9.43-11.72-12.21c-4.81-2.78-10.07-4.19-15.63-4.19c-5.57,0-10.83,1.38-15.63,4.09
			c-4.8,2.72-8.75,6.76-11.72,12.02c-2.98,5.27-4.5,11.62-4.5,18.9c0,7.28,1.51,13.74,4.51,19.21c2.98,5.46,6.95,9.66,11.82,12.5
			C1027.94,764.86,1039.76,764.7,1049.27,759.2z M1219.98,698.01c4.55,8.57,6.85,18.52,6.85,29.59s-2.3,21.11-6.84,29.87
			c-4.55,8.78-10.91,15.71-18.89,20.61c-7.99,4.9-16.94,7.38-26.59,7.38c-8.46,0-16.08-1.74-22.65-5.16
			c-5.54-2.89-10.28-6.42-14.13-10.51v65.67h-24.82V672.5h24.82v13.97c3.66-4.05,8.33-7.57,13.94-10.49
			c6.72-3.49,14.41-5.27,22.85-5.27c9.65,0,18.58,2.42,26.57,7.18C1209.07,682.67,1215.43,689.43,1219.98,698.01z M1154.05,696.79
			c-4.87,2.78-8.84,6.89-11.82,12.21c-2.98,5.33-4.5,11.72-4.5,19c0,7.28,1.51,13.71,4.51,19.11c2.97,5.38,6.94,9.52,11.81,12.3
			c9.85,5.64,21.65,5.54,31.25-0.1c4.88-2.84,8.86-7.05,11.83-12.5c2.99-5.48,4.51-11.95,4.51-19.21s-1.51-13.61-4.5-18.9
			c-2.97-5.24-6.94-9.29-11.82-12.01c-4.87-2.72-10.16-4.1-15.74-4.1C1164.14,692.59,1158.92,694,1154.05,696.79z M1330.15,672.5
			h25.01v111.17h-25.01v-14.11c-3.66,4.14-8.33,7.7-13.93,10.62c-6.72,3.49-14.48,5.27-23.06,5.27c-9.53,0-18.37-2.48-26.29-7.39
			c-7.91-4.89-14.27-11.82-18.89-20.6c-4.61-8.73-6.94-18.79-6.94-29.87s2.33-21.05,6.95-29.59c4.62-8.58,11.01-15.34,19-20.1
			c7.97-4.76,16.91-7.18,26.56-7.18c8.7,0,16.43,1.74,22.97,5.18c5.42,2.85,9.99,6.33,13.63,10.37V672.5z M1313.94,759.41
			c4.8-2.78,8.74-6.93,11.71-12.31c2.99-5.4,4.51-11.83,4.51-19.11c0-7.28-1.51-13.67-4.5-19c-2.98-5.32-6.92-9.43-11.72-12.21
			c-4.81-2.78-10.07-4.19-15.63-4.19c-5.57,0-10.83,1.38-15.63,4.09c-4.8,2.72-8.75,6.76-11.72,12.02c-2.98,5.27-4.5,11.62-4.5,18.9
			c0,7.28,1.51,13.74,4.51,19.21c2.98,5.46,6.95,9.66,11.82,12.5C1292.6,765.07,1304.43,764.91,1313.94,759.41z M1432.81,670.73
			c-7.66,0-14.4,1.61-20.03,4.79h-0.01c-4.51,2.56-8.33,5.96-11.42,10.13V672.5h-24.82v111.17h24.82v-58.45
			c0-10.7,2.19-18.27,6.48-22.5c4.3-4.24,10.78-6.39,19.25-6.39h6.87v-25.62H1432.81z"/>
		<path class="st13" d="M316.51,645.82V784.2h-14.04V673.7l-49.33,110.5h-10.23l-49.33-110.1v110.1h-14.04V645.82h14.84
			l53.55,119.93l53.55-119.93H316.51z M437.15,734.86H346.3c0.4,8.29,2.41,15.38,6.02,21.26c3.61,5.89,8.35,10.33,14.24,13.34
			c5.88,3.01,12.3,4.51,19.25,4.51c9.09,0,16.75-2.21,22.96-6.62c6.22-4.41,10.33-10.36,12.33-17.85h14.84
			c-2.68,10.7-8.39,19.42-17.15,26.17c-8.76,6.75-19.75,10.13-32.99,10.13c-10.3,0-19.52-2.31-27.67-6.92
			c-8.16-4.61-14.54-11.16-19.15-19.65c-4.61-8.49-6.92-18.42-6.92-29.78c0-11.36,2.27-21.33,6.82-29.88
			c4.54-8.56,10.9-15.11,19.05-19.65c8.15-4.54,17.45-6.82,27.87-6.82c10.43,0,19.55,2.28,27.38,6.82
			c7.82,4.55,13.84,10.66,18.05,18.35c4.21,7.69,6.32,16.21,6.32,25.57C437.55,728.65,437.42,732.33,437.15,734.86z M418.4,702.58
			c-3.41-5.75-8.06-10.09-13.94-13.04c-5.89-2.94-12.3-4.41-19.25-4.41c-10.43,0-19.32,3.34-26.67,10.03
			c-7.35,6.69-11.43,16.11-12.23,28.28h77.01C423.44,715.28,421.81,708.32,418.4,702.58z M476.46,686.53v67.99
			c0,6.69,1.27,11.3,3.81,13.84c2.54,2.54,7.02,3.81,13.44,3.81h12.84v12.03H491.5c-9.9,0-17.25-2.31-22.06-6.92
			c-4.81-4.61-7.22-12.2-7.22-22.76v-67.99h-15.24V674.7h15.24v-27.47h14.24v27.47h30.08v11.83H476.46z M522.46,699.67
			c4.48-8.49,10.69-15.04,18.65-19.65c7.95-4.61,16.95-6.92,26.97-6.92c10.43,0,19.42,2.41,26.97,7.22
			c7.55,4.82,13,10.96,16.34,18.45V674.7h14.04v109.5H611.4v-24.27c-3.48,7.49-8.99,13.67-16.55,18.55
			c-7.55,4.88-16.55,7.32-26.97,7.32c-9.9,0-18.82-2.34-26.77-7.02c-7.96-4.68-14.17-11.3-18.65-19.85
			c-4.48-8.55-6.72-18.45-6.72-29.68C515.74,718.02,517.98,708.16,522.46,699.67z M605.98,706.18c-3.61-6.68-8.52-11.83-14.74-15.44
			c-6.22-3.61-13.07-5.42-20.56-5.42c-7.76,0-14.71,1.74-20.86,5.21c-6.15,3.48-11,8.52-14.54,15.14
			c-3.54,6.62-5.31,14.48-5.31,23.57c0,8.96,1.77,16.81,5.31,23.57c3.54,6.75,8.39,11.9,14.54,15.44c6.15,3.54,13.1,5.31,20.86,5.31
			c7.49,0,14.34-1.8,20.56-5.42c6.22-3.61,11.13-8.75,14.74-15.44c3.61-6.69,5.42-14.44,5.42-23.26
			C611.4,720.62,609.59,712.87,605.98,706.18z M659.25,635.79v148.4h-14.04v-148.4H659.25z M870.02,644.02L816.87,784.2h-16.04
			l-53.15-140.18h15.24l45.93,124.94l46.32-124.94H870.02z M974.02,674.7l-64.98,161.04H894.4l21.26-52.14L870.74,674.7h15.44
			l37.3,93.45l36.1-93.45H974.02z M983.35,699.67c4.48-8.49,10.7-15.04,18.65-19.65c7.95-4.61,16.95-6.92,26.97-6.92
			c10.43,0,19.42,2.41,26.98,7.22c7.55,4.82,13,10.96,16.34,18.45V674.7h14.04v109.5h-14.04v-24.27
			c-3.48,7.49-8.99,13.67-16.54,18.55c-7.55,4.88-16.55,7.32-26.98,7.32c-9.9,0-18.82-2.34-26.77-7.02
			c-7.96-4.68-14.17-11.3-18.65-19.85c-4.48-8.55-6.72-18.45-6.72-29.68C976.63,718.02,978.87,708.16,983.35,699.67z
			 M1066.87,706.18c-3.61-6.68-8.52-11.83-14.74-15.44c-6.22-3.61-13.07-5.42-20.56-5.42c-7.76,0-14.71,1.74-20.85,5.21
			c-6.15,3.48-11,8.52-14.54,15.14c-3.54,6.62-5.31,14.48-5.31,23.57c0,8.96,1.77,16.81,5.31,23.57c3.54,6.75,8.39,11.9,14.54,15.44
			c6.15,3.54,13.1,5.31,20.85,5.31c7.49,0,14.34-1.8,20.56-5.42c6.22-3.61,11.13-8.75,14.74-15.44c3.61-6.69,5.42-14.44,5.42-23.26
			C1072.29,720.62,1070.48,712.87,1066.87,706.18z M1138.77,680.41c7.55-4.88,16.55-7.32,26.98-7.32c9.89,0,18.82,2.31,26.77,6.92
			c7.95,4.61,14.17,11.16,18.65,19.65c4.48,8.49,6.72,18.35,6.72,29.58c0,11.23-2.24,21.13-6.72,29.68
			c-4.48,8.56-10.7,15.18-18.65,19.85c-7.96,4.68-16.88,7.02-26.77,7.02c-10.3,0-19.25-2.44-26.87-7.32
			c-7.62-4.88-13.17-10.99-16.64-18.35v75.8h-13.84V674.7h13.84v24.06C1125.7,691.41,1131.21,685.3,1138.77,680.41z M1198.33,705.68
			c-3.54-6.62-8.39-11.66-14.54-15.14c-6.15-3.47-13.1-5.21-20.86-5.21c-7.49,0-14.34,1.81-20.56,5.42
			c-6.22,3.61-11.13,8.76-14.74,15.44c-3.61,6.69-5.42,14.44-5.42,23.26c0,8.82,1.8,16.58,5.42,23.26
			c3.61,6.69,8.52,11.83,14.74,15.44c6.22,3.61,13.07,5.42,20.56,5.42c7.75,0,14.71-1.77,20.86-5.31
			c6.15-3.54,10.99-8.69,14.54-15.44c3.54-6.75,5.31-14.61,5.31-23.57C1203.65,720.16,1201.87,712.3,1198.33,705.68z
			 M1236.61,699.67c4.48-8.49,10.7-15.04,18.65-19.65c7.95-4.61,16.95-6.92,26.97-6.92c10.43,0,19.42,2.41,26.98,7.22
			c7.55,4.82,13,10.96,16.34,18.45V674.7h14.04v109.5h-14.04v-24.27c-3.48,7.49-8.99,13.67-16.54,18.55
			c-7.55,4.88-16.55,7.32-26.98,7.32c-9.9,0-18.82-2.34-26.77-7.02c-7.96-4.68-14.17-11.3-18.65-19.85
			c-4.48-8.55-6.72-18.45-6.72-29.68C1229.89,718.02,1232.13,708.16,1236.61,699.67z M1320.13,706.18
			c-3.61-6.68-8.52-11.83-14.74-15.44c-6.22-3.61-13.07-5.42-20.56-5.42c-7.76,0-14.71,1.74-20.86,5.21
			c-6.15,3.48-11,8.52-14.54,15.14c-3.54,6.62-5.31,14.48-5.31,23.57c0,8.96,1.77,16.81,5.31,23.57s8.39,11.9,14.54,15.44
			c6.15,3.54,13.1,5.31,20.86,5.31c7.49,0,14.34-1.8,20.56-5.42c6.22-3.61,11.13-8.75,14.74-15.44c3.61-6.69,5.42-14.44,5.42-23.26
			C1325.55,720.62,1323.75,712.87,1320.13,706.18z M1389.82,678.31c6.35-3.74,14.14-5.62,23.36-5.62v14.64h-3.81
			c-10.16,0-18.32,2.74-24.47,8.22c-6.15,5.48-9.22,14.64-9.22,27.47v61.17h-14.04V674.7h14.04v19.45
			C1378.76,687.33,1383.47,682.05,1389.82,678.31z"/>
	</g>
</g>
</svg>
